<?xml version="1.0" standalone="no"?><!DOCTYPE svg PUBLIC "-//W3C//DTD SVG 1.1//EN" "http://www.w3.org/Graphics/SVG/1.1/DTD/svg11.dtd"><svg t="1527578723010" class="icon" style="" viewBox="0 0 1024 1024" version="1.1" xmlns="http://www.w3.org/2000/svg" p-id="3308" xmlns:xlink="http://www.w3.org/1999/xlink" width="200" height="200"><defs><style type="text/css"></style></defs><path d="M439.678 666.796l-27.472 26.439c-23.744 22.941-62.286 22.941-86.029 0-11.356-10.955-17.608-25.637-17.608-41.237s6.251-30.225 17.608-41.179l100.827-97.557c20.819-20.188 60.106-49.898 88.782-22.196 13.134 12.732 34.412 12.675 47.374-0.229 13.019-12.79 13.019-33.494-0.114-46.169-48.751-47.145-120.671-38.427-183.357 22.196l-100.712 97.443c-24.145 23.4-37.451 54.6-37.451 87.692 0 33.151 13.306 64.292 37.451 87.635 24.891 24.088 57.525 36.19 90.216 36.19 32.692 0 65.439-12.102 90.273-36.133l27.357-26.555c13.192-12.732 13.192-33.379 0.172-46.226-13.019-12.732-34.182-12.847-47.316-0.115v0zM745.025 288.094c-52.306-50.586-125.373-53.339-173.722-6.538l-34.182 33.035c-13.134 12.732-13.249 33.437-0.115 46.226 13.019 12.79 34.298 12.904 47.374 0.172l34.182-33.035c25.12-24.261 57.812-14.224 79.319 6.481 11.413 11.012 17.608 25.694 17.608 41.294 0 15.543-6.137 30.225-17.608 41.237l-107.594 104.038c-49.151 47.545-72.265 25.235-82.072 15.715-13.192-12.79-34.412-12.675-47.431 0.115-13.019 12.847-12.961 33.551 0.172 46.284 22.598 21.851 48.406 32.692 75.362 32.692 33.035 0 68.021-16.174 101.285-48.406l107.422-103.981c24.202-23.4 37.508-54.543 37.508-87.635 0-33.208-13.363-64.292-37.508-87.692v0zM512 60.632c-249.255 0-451.368 202.112-451.368 451.368s202.112 451.368 451.368 451.368c249.371 0 451.482-202.112 451.482-451.368-0.057-249.255-202.112-451.368-451.482-451.368v0zM512 860.133c-192.247 0-348.133-155.828-348.133-348.133s155.886-348.075 348.133-348.075c192.362 0 348.19 155.828 348.19 348.075s-155.828 348.133-348.19 348.133v0zM512 860.133z" p-id="3309"></path></svg>