<?xml version="1.0" standalone="no"?><!DOCTYPE svg PUBLIC "-//W3C//DTD SVG 1.1//EN" "http://www.w3.org/Graphics/SVG/1.1/DTD/svg11.dtd"><svg t="1524641415120" class="icon" style="" viewBox="0 0 1024 1024" version="1.1" xmlns="http://www.w3.org/2000/svg" p-id="756" xmlns:xlink="http://www.w3.org/1999/xlink" width="200" height="200"><defs><style type="text/css"></style></defs><path d="M799.747377 281.710003H690.460678v-77.564905c0-91.993205-74.802039-166.795243-166.795244-166.795243s-166.795243 74.802039-166.795243 166.795243v77.564905H224.252623c-85.137204 0-154.413511 69.276307-154.41351 154.413511v503.967222c0 25.684421 20.874988 46.559408 46.559408 46.559409h201.689218c12.381733 0 24.149495-4.911762 32.949735-13.609673l51.880483-51.880484 40.82902 40.726691c8.697911 8.697911 20.568002 13.609673 32.949735 13.609674H907.703807c25.684421 0 46.559408-20.874988 46.559409-46.559409V436.123514c-0.102328-85.137204-69.378635-154.413511-154.515839-154.413511z m-349.758369-77.564905c0-40.624363 33.052064-73.676427 73.676426-73.676426s73.676427 33.052064 73.676427 73.676426v77.564905h-147.352853v-77.564905zM162.957929 436.123514c0-33.768362 27.526332-61.294694 61.294694-61.294694H799.747377c33.768362 0 61.294694 27.526332 61.294694 61.294694v31.721794H162.957929v-31.721794z m698.084142 446.254022H495.934446l-60.066753-60.066754c-18.21445-18.21445-47.582692-18.21445-65.797142 0L298.850005 893.531328H162.957929v-332.567203h698.084142v321.413411z" fill="" p-id="757"></path><path d="M517.832717 832.441291c25.684421 0 46.559408-20.874988 46.559409-46.559408V646.305986c0-25.684421-20.874988-46.559408-46.559409-46.559409s-46.559408 20.874988-46.559408 46.559409V785.881883c0 25.786749 20.874988 46.559408 46.559408 46.559408zM298.645348 832.441291c25.684421 0 46.559408-20.874988 46.559409-46.559408V646.305986c0-25.684421-20.874988-46.559408-46.559409-46.559409s-46.559408 20.874988-46.559408 46.559409V785.881883c0.102328 25.786749 20.874988 46.559408 46.559408 46.559408zM736.917758 832.441291c25.684421 0 46.559408-20.874988 46.559408-46.559408V646.305986c0-25.684421-20.874988-46.559408-46.559408-46.559409s-46.559408 20.874988-46.559409 46.559409V785.881883c0.102328 25.786749 20.874988 46.559408 46.559409 46.559408z" fill="" p-id="758"></path></svg>