<?xml version="1.0" standalone="no"?><!DOCTYPE svg PUBLIC "-//W3C//DTD SVG 1.1//EN" "http://www.w3.org/Graphics/SVG/1.1/DTD/svg11.dtd"><svg t="1522742708421" class="icon" style="" viewBox="0 0 1024 1024" version="1.1" xmlns="http://www.w3.org/2000/svg" p-id="1904" xmlns:xlink="http://www.w3.org/1999/xlink" width="200" height="200"><defs><style type="text/css"></style></defs><path d="M936.483248 364.550227l-83.803981 0c-3.986297 0-7.652811 1.187795-10.933587 2.961992l-37.786181-113.794647c-12.084807-64.741505-57.642918-95.95814-113.639752-95.95814L335.400582 157.759431c-64.275821 0-103.287171 41.93197-113.642151 95.896782l-37.880317 114.179786c-3.448062-1.997646-7.357012-3.285772-11.605531-3.285772L88.449815 364.550227c-12.879268 0-23.334179 10.435325-23.334179 23.353566l0 20.247672c0 12.879268 10.454912 23.334179 23.334179 23.334179l31.734884 5.421724c-10.017608 19.584122-15.738329 41.990331-15.738329 68.060055l-11.748035 134.317533c0 3.89436 0.284207 7.857672 0.768079 11.847967-0.444698 2.437347-0.768079 4.980623-0.768079 7.578862l0 161.594039c0 22.988414 18.660748 41.628776 41.65156 41.628776l63.5693 0c23.010399 0 41.647763-18.640362 41.647763-41.628776l0-51.945581 546.558633 0 0 51.941584c0 22.992411 18.64336 41.627776 41.653759 41.627776l63.571698 0c22.987415 0 41.644565-18.635365 41.644565-41.627776l0-161.590042c0-2.608232-0.319783-5.141514-0.764482-7.578862 0.463686-3.990295 0.764482-7.953607 0.764482-11.847967l-11.748035-134.313535c0-26.139278-5.740108-48.561475-15.794291-68.209154l31.029962-5.276822c12.899254 0 23.334179-10.45691 23.334179-23.334179l0-20.249671C959.821225 374.985552 949.382303 364.550227 936.483248 364.550227zM249.783431 340.636041l27.742591-73.844733 0.387337-1.730227c2.760728-14.933875 8.925948-17.594071 18.031774-29.123254l434.349311 0c9.187771 11.848966 14.915887 14.856927 17.44817 28.961364l28.186889 75.73705 10.318004 41.142505c-2.337415 30.10299-38.508691 53.87927-68.607284 53.87927l-409.564315 0c-30.124975 0-66.292454-23.77628-68.629269-53.87927L249.783431 340.636041zM269.226249 691.799552c-34.83778 0-63.063643-28.230859-63.063643-63.073036 0-34.841378 28.225863-63.063043 63.063643-63.063043 34.839379 0 63.069639 28.221866 63.069639 63.063043C332.295887 663.568692 304.065428 691.799552 269.226249 691.799552zM621.476623 645.270099l-0.008994 0c0 10.373966-8.400305 18.757283-18.76128 18.757283l-176.937636 0c-10.35438 0-18.76168-8.383316-18.76168-18.757283l0-52.711062c0-10.356978 8.400704-18.739295 18.76168-18.739295l176.937636 0c10.360975 0 18.770274 8.382317 18.770274 18.739295L621.476623 645.270099zM756.468698 691.799552c-34.83838 0-63.086028-28.230859-63.086028-63.073036 0-34.841378 28.247648-63.063043 63.086028-63.063043 34.83738 0 63.067041 28.221866 63.067041 63.063043C819.540735 663.568692 791.305879 691.799552 756.468698 691.799552z" p-id="1905"></path></svg>