<?xml version="1.0" standalone="no"?><!DOCTYPE svg PUBLIC "-//W3C//DTD SVG 1.1//EN" "http://www.w3.org/Graphics/SVG/1.1/DTD/svg11.dtd"><svg t="1524639672391" class="icon" style="" viewBox="0 0 1024 1024" version="1.1" xmlns="http://www.w3.org/2000/svg" p-id="510" xmlns:xlink="http://www.w3.org/1999/xlink" width="200" height="200"><defs><style type="text/css"></style></defs><path d="M473.9 549.2v-409c-223.8 0-405.7 179.1-409.9 401.8 0 2.6-0.1 5.3-0.1 7.9 0 2.6 0 5.3 0.1 7.9 4.2 222.7 186.1 401.9 409.9 401.9 226.4 0 410-183.5 410-409.8v-0.8l-410 0.1z m-116.2 303.6c-71-30.8-129.3-85.3-165-153.5l14.6-6.5c15 28.6 34.2 54.6 57.3 77.7 28.3 28.3 61 50.7 97.3 66.7l-4.2 15.6z" fill="#343535" p-id="511"></path><path d="M960.1 473.3h-410v-409c209.9 0 383 157.7 407.1 361 1.9 15.7 2.8 31.7 2.9 48z" fill="#E73B37" p-id="512"></path></svg>