<?xml version="1.0" standalone="no"?><!DOCTYPE svg PUBLIC "-//W3C//DTD SVG 1.1//EN" "http://www.w3.org/Graphics/SVG/1.1/DTD/svg11.dtd"><svg t="1521789229577" class="icon" style="" viewBox="0 0 1024 1024" version="1.1" xmlns="http://www.w3.org/2000/svg" p-id="2142" xmlns:xlink="http://www.w3.org/1999/xlink" width="200" height="200"><defs><style type="text/css"></style></defs><path d="M588.8 64C390.4 64 224 236.8 224 448c0 76.8 25.6 153.6 64 217.6l-32 25.6-83.2-89.6c-19.2-19.2-44.8-19.2-64 0-19.2 19.2-19.2 44.8 0 64l89.6 89.6-121.6 121.6c-19.2 19.2-19.2 44.8 0 64 6.4 12.8 19.2 19.2 32 19.2s25.6-6.4 32-12.8l115.2-128 83.2 89.6c6.4 6.4 19.2 12.8 32 12.8s25.6-6.4 32-12.8c19.2-19.2 19.2-44.8 0-64L320 755.2l25.6-25.6c64 57.6 147.2 96 243.2 96 204.8 0 371.2-172.8 371.2-377.6s-166.4-384-371.2-384z m0 672c-153.6 0-281.6-128-281.6-288s128-288 281.6-288 281.6 128 281.6 288-128 288-281.6 288z" p-id="2143"></path></svg>