<?xml version="1.0" standalone="no"?><!DOCTYPE svg PUBLIC "-//W3C//DTD SVG 1.1//EN" "http://www.w3.org/Graphics/SVG/1.1/DTD/svg11.dtd"><svg t="1530256125928" class="icon" style="" viewBox="0 0 1024 1024" version="1.1" xmlns="http://www.w3.org/2000/svg" p-id="5842" xmlns:xlink="http://www.w3.org/1999/xlink" width="200" height="200"><defs><style type="text/css"></style></defs><path d="M895.9 912.3h-397l47.2-15.6c21.3-5.7 39.1-22.4 50.2-41.9s14.2-42.3 8.7-64.1L499 371.5c-9.4-37.3-42.1-63.3-79.4-63.3-7 0-14 0.9-20.7 2.7l-54.1 14.5c-9.4-5.6-20.2-8.8-31.7-8.8-3.8 0-7.5 0.4-11.2 1-12.3-19.2-33.6-31.4-56.9-31.4-5.8 0-11.9 0.7-18.2 2.4-17.7 4.7-33.2 16.2-42.4 32.3-5.3 9.3-9.9 19.6-10.7 30.1-13.6 4.8-20.1 14.2-35.6 26.8v-92.3c0-18.6 11.3-43.7 21.4-56.8L260 102c9.2-11.9 23.2-20 38-20h504.3c14.8 0 29.7 8.1 38.8 20l98.4 127.2c10.2 13.2 20.2 37.7 20.2 54.6V844c0.3 34.5-30.2 68.3-63.8 68.3z m-22-718.6H640l-12.2-47.9h217.5l-23.9-26.7c-4.6-5.9-11.6-5.2-19-5.2H298.2c-7.4 0-14.4-0.7-19 5.2l-23.8 26.7H469l-21.8 47.9H226.8l-32.3 31.9h711.7l-32.3-31.9zM236.6 324.8l0.7-0.2c16.9-4.5 34.2 5.9 38.6 23.3l0.1 0.5c1.9 7.6 9.4 12.1 16.6 10.1l13.6-3.7c14.5-3.9 29.4 5 33.2 20l0.2 0.5c3.8 15-5 30.3-19.5 34.1l-115.6 31c-14.5 3.9-29.4-5-33.2-20l-0.2-0.5c-3.8-15 4.9-30.3 19.4-34.1l13.7-3.7c7.3-2 11.7-9.6 9.8-17.1l-0.1-0.4c-4.3-17.4 5.9-35.3 22.7-39.8z m11.9 45.5c7.3-2 11.7-9.7 9.8-17.2-1.9-7.6-9.4-12.1-16.7-10.1-7.3 2-11.7 9.6-9.8 17.2 2 7.6 9.4 12.1 16.7 10.1z m-93.8 58.6c7.8 23.3 32.8 35.7 56.1 29.5l113.9-30.5c24.2-6.5 38.9-32.2 32.4-57.7-0.7-3.1-1.8-5.9-3.1-8.7l54-14.4c24.4-6.6 49.3 8.6 55.7 33.7l106 419.2c6.3 25.1-8.3 50.9-32.7 57.6l-309.8 83c-24.4 6.6-49.4-8.6-55.7-33.7l-106-419.2c-6.4-25.1 8.3-50.8 32.7-57.4l54.1-14.5c0.2 4.3 1 8.7 2.4 13.1z m60.9 466l309.9-83.1-92.1-364.5-309.8 83 92 364.6zM428.2 614l-230.1 61.6c-4.9 1.3-9.9-1.7-11.1-6.8l-2.3-9.1c-1.3-5 1.7-10.2 6.6-11.4l230.1-61.6c4.9-1.3 9.9 1.7 11.1 6.8l2.3 9.1c1.2 5-1.7 10.2-6.6 11.4zM230.4 767.5l168.2-45c4.9-1.3 9.9 1.7 11.1 6.8l2.3 9.1c1.3 5-1.7 10.2-6.6 11.4l-168.2 45c-4.9 1.3-9.9-1.7-11.1-6.8l-2.3-9.1c-1.2-5 1.7-10.1 6.6-11.4z" fill="#FFFFFF" p-id="5843"></path></svg>