<?xml version="1.0" standalone="no"?><!DOCTYPE svg PUBLIC "-//W3C//DTD SVG 1.1//EN" "http://www.w3.org/Graphics/SVG/1.1/DTD/svg11.dtd"><svg t="1525674255042" class="icon" style="" viewBox="0 0 1024 1024" version="1.1" xmlns="http://www.w3.org/2000/svg" p-id="691" xmlns:xlink="http://www.w3.org/1999/xlink" width="200" height="200"><defs><style type="text/css"></style></defs><path d="M939.008 343.04c13.312 13.312 20.48 30.208 20.992 51.2v112.128c-0.512 20.48-7.68 37.888-20.992 51.2-13.312 13.312-30.208 20.48-51.2 20.992h8.192v311.808c-0.512 20.48-7.68 37.888-20.992 51.2-13.312 13.312-30.208 20.48-51.2 20.992H200.192c-20.48-0.512-37.888-7.68-51.2-20.992-13.312-13.312-20.48-30.208-20.992-51.2V578.56h8.192c-20.48-0.512-37.888-7.68-51.2-20.992-13.312-13.312-20.48-30.208-20.992-51.2V394.24c0.512-20.48 7.68-37.888 20.992-51.2 13.312-13.312 30.208-20.48 51.2-20.992H384c-35.84-0.512-66.048-13.312-90.624-37.376-24.576-24.576-36.864-54.272-37.376-90.624 0.512-35.84 13.312-66.048 37.376-90.624C317.952 79.36 348.16 66.56 384 66.048c35.84 0.512 66.048 13.312 90.624 37.376 24.576 24.576 36.864 54.272 37.376 90.624 0.512-35.84 13.312-66.048 37.376-90.624 24.576-24.576 54.272-36.864 90.624-37.376 35.84 0.512 66.048 13.312 90.624 37.376 24.576 24.576 36.864 54.272 37.376 90.624-0.512 35.84-13.312 66.048-37.376 90.624-24.576 24.576-54.272 36.864-90.624 37.376h247.808c20.992 0.512 37.888 7.68 51.2 20.992zM476.16 394.24H136.192v112.128H476.16V394.24z m0 183.808H200.192v311.808H476.16v-311.808z m-36.352-328.192V194.048c-0.512-15.872-6.144-29.184-16.384-39.424s-23.552-15.36-39.424-15.36-29.184 5.12-39.424 15.36-15.36 23.552-15.36 39.424 5.12 29.184 15.36 39.424 23.552 15.872 39.424 16.384h55.808zM887.808 394.24H547.84v112.128h339.968V394.24z m-64 183.808H547.84v311.808h275.968v-311.808z m-239.616-328.192H640c15.872-0.512 29.184-6.144 39.424-16.384s15.36-23.552 15.36-39.424-5.12-29.184-15.36-39.424-23.552-15.36-39.424-15.36-29.184 5.12-39.424 15.36-15.872 23.552-16.384 39.424v55.808z" p-id="692"></path></svg>