<?xml version="1.0" standalone="no"?><!DOCTYPE svg PUBLIC "-//W3C//DTD SVG 1.1//EN" "http://www.w3.org/Graphics/SVG/1.1/DTD/svg11.dtd"><svg t="1523341312556" class="icon" style="" viewBox="0 0 1024 1024" version="1.1" xmlns="http://www.w3.org/2000/svg" p-id="1656" xmlns:xlink="http://www.w3.org/1999/xlink" width="200" height="200"><defs><style type="text/css"></style></defs><path d="M850.897012 194.925505 113.363396 194.925505c-25.917276 0-46.977941 21.100574-46.977941 46.977941l0 430.513104c0 25.917276 21.060665 46.975894 46.977941 46.975894l737.533616 0c25.917276 0 46.975894-21.058618 46.975894-46.975894L897.872906 241.903445C897.872906 216.026078 876.814288 194.925505 850.897012 194.925505zM857.106434 672.41655c0 3.423983-2.786463 6.208399-6.209422 6.208399L113.363396 678.624948c-3.425006 0-6.211469-2.785439-6.211469-6.208399L107.151927 241.903445c0-3.425006 2.786463-6.211469 6.211469-6.211469l737.533616 0c3.423983 0 6.209422 2.786463 6.209422 6.211469L857.106434 672.41655z" p-id="1657"></path><path d="M174.233742 314.478368l239.978607 0c11.266601 0 20.383236-9.117658 20.383236-20.383236 0-11.267625-9.116635-20.383236-20.383236-20.383236L174.233742 273.711895c-11.266601 0-20.382213 9.115612-20.382213 20.383236C153.850505 305.360709 162.96714 314.478368 174.233742 314.478368z" p-id="1658"></path><path d="M174.233742 391.192563l123.094526 0c11.267625 0 20.383236-9.155521 20.383236-20.383236 0-11.307533-9.115612-20.383236-20.383236-20.383236L174.233742 350.426091c-11.266601 0-20.382213 9.075703-20.382213 20.383236C153.850505 382.037043 162.96714 391.192563 174.233742 391.192563z" p-id="1659"></path><path d="M790.464641 573.207014 174.233742 573.207014c-11.266601 0-20.382213 9.157567-20.382213 20.383236 0 11.307533 9.116635 20.383236 20.382213 20.383236l616.230899 0c11.225669 0 20.382213-9.075703 20.382213-20.383236C810.846854 582.364581 801.69031 573.207014 790.464641 573.207014z" p-id="1660"></path><path d="M763.830027 262.763542 634.406352 262.763542c-25.917276 0-46.977941 21.100574-46.977941 46.976918l0 149.528572c0 25.917276 21.060665 46.976918 46.977941 46.976918L763.830027 506.245949c25.917276 0 47.016827-21.059642 47.016827-46.976918L810.846854 309.74046C810.846854 283.863093 789.747303 262.763542 763.830027 262.763542zM770.080382 459.269032c0 3.423983-2.787486 6.211469-6.250354 6.211469L634.406352 465.4805c-3.425006 0-6.211469-2.788509-6.211469-6.211469L628.194884 309.74046c0-3.425006 2.787486-6.210445 6.211469-6.210445L763.830027 303.530015c3.463891 0 6.250354 2.786463 6.250354 6.210445L770.080382 459.269032z" p-id="1661"></path></svg>