<?xml version="1.0" standalone="no"?><!DOCTYPE svg PUBLIC "-//W3C//DTD SVG 1.1//EN" "http://www.w3.org/Graphics/SVG/1.1/DTD/svg11.dtd"><svg t="1522659786969" class="icon" style="" viewBox="0 0 1092 1024" version="1.1" xmlns="http://www.w3.org/2000/svg" p-id="1817" xmlns:xlink="http://www.w3.org/1999/xlink" width="213.28125" height="200"><defs><style type="text/css"></style></defs><path d="M1057.204013 341.101243A34.557516 34.557516 0 0 1 1023.926405 307.183681v-191.986201l-325.096633 311.6576a363.493874 363.493874 0 0 1 76.154526 221.424085 383.972402 383.972402 0 0 1-383.972402 375.653A383.972402 383.972402 0 0 1 0 648.279165a383.972402 383.972402 0 0 1 387.812126-375.013046 392.931758 392.931758 0 0 1 266.220865 103.672549l319.977002-308.45783h-199.025695a35.19747 35.19747 0 0 1-35.19747-34.557516 34.557516 34.557516 0 0 1 35.19747-33.917562h282.219715a31.357746 31.357746 0 0 1 19.838575 7.039494h5.119632c1.279908 0 0 0 0 0a34.557516 34.557516 0 0 1 8.319402 19.19862V307.183681a34.557516 34.557516 0 0 1-33.277609 33.917562z m-669.391887 0a312.297554 312.297554 0 0 0-319.977002 307.177922 312.297554 312.297554 0 0 0 319.977002 307.177922 312.297554 312.297554 0 0 0 319.977002-307.177922 312.297554 312.297554 0 0 0-319.977002-307.177922z" p-id="1818"></path></svg>