<?xml version="1.0" standalone="no"?><!DOCTYPE svg PUBLIC "-//W3C//DTD SVG 1.1//EN" "http://www.w3.org/Graphics/SVG/1.1/DTD/svg11.dtd"><svg t="1525674266512" class="icon" style="" viewBox="0 0 1024 1024" version="1.1" xmlns="http://www.w3.org/2000/svg" p-id="907" xmlns:xlink="http://www.w3.org/1999/xlink" width="200" height="200"><defs><style type="text/css"></style></defs><path d="M833.243 696.834H403.574l-85.618 81.838c-5.724 5.472-13.63 8.858-22.362 8.858-0.134 0-0.26-0.032-0.39-0.032-8.578-0.105-16.337-3.44-21.976-8.826-0.126-0.112-0.22-0.276-0.347-0.394-1.276-1.282-2.48-2.616-3.512-4.077-0.408-0.58-0.684-1.249-1.048-1.86-0.655-1.066-1.353-2.112-1.87-3.27-0.239-0.553-0.344-1.156-0.554-1.72-0.481-1.296-0.99-2.58-1.283-3.962a28.868 28.868 0 0 1-0.645-6.087v-60.467h-42.187c-17.457-0.007-31.612-13.536-31.612-30.237V233.272c0-16.702 14.159-30.23 31.625-30.23h611.447c17.47 0 31.627 13.528 31.627 30.23v433.324c0 16.701-14.157 30.238-31.626 30.238z m-463.857-302.32c-34.932 0-63.252 27.068-63.252 60.466 0 33.389 28.32 60.463 63.252 60.463 34.937 0 63.257-27.075 63.257-60.463-0.004-33.398-28.32-60.467-63.257-60.467z m158.134 0c-34.936 0-63.252 27.068-63.252 60.466 0 33.389 28.316 60.463 63.252 60.463 34.936 0 63.253-27.075 63.253-60.463 0-33.398-28.317-60.467-63.253-60.467z m158.134 0c-34.936 0-63.256 27.068-63.256 60.466 0 33.389 28.32 60.463 63.256 60.463 34.933 0 63.253-27.075 63.253-60.463 0-33.398-28.32-60.467-63.253-60.467z" p-id="908"></path></svg>