<?xml version="1.0" standalone="no"?><!DOCTYPE svg PUBLIC "-//W3C//DTD SVG 1.1//EN" "http://www.w3.org/Graphics/SVG/1.1/DTD/svg11.dtd"><svg t="1525674261902" class="icon" style="" viewBox="0 0 1024 1024" version="1.1" xmlns="http://www.w3.org/2000/svg" p-id="799" xmlns:xlink="http://www.w3.org/1999/xlink" width="200" height="200"><defs><style type="text/css"></style></defs><path d="M513 960.2c56.3 0 101.9-45.6 101.9-101.9H411.1c0 56.3 45.7 101.9 101.9 101.9zM869.7 688.1h-50.9V433.3c0-140-94.7-256.8-223.3-292.9-4.1-42.5-38.8-76.2-82.4-76.2-43.6 0-78.3 33.7-82.4 76.2-128.5 36.1-223.2 152.8-223.2 292.9v254.8h-51c-28.2 0-50.9 22.8-50.9 50.9s22.8 50.9 50.9 50.9h713.3c28.2 0 50.9-22.8 50.9-50.9-0.1-28.2-22.9-50.9-51-50.9z" p-id="800"></path></svg>