<?xml version="1.0" standalone="no"?><!DOCTYPE svg PUBLIC "-//W3C//DTD SVG 1.1//EN" "http://www.w3.org/Graphics/SVG/1.1/DTD/svg11.dtd"><svg t="1528793466939" class="icon" style="" viewBox="0 0 1024 1024" version="1.1" xmlns="http://www.w3.org/2000/svg" p-id="2936" xmlns:xlink="http://www.w3.org/1999/xlink" width="32" height="32"><defs><style type="text/css"></style></defs><path d="M511.492567 260.820614q52.773043 0 98.949455 19.789891t80.681863 54.295342 54.295342 80.681863 19.789891 98.949455-19.789891 99.456888-54.295342 81.189296-80.681863 54.295342-98.949455 19.789891-98.949455-19.789891-80.681863-54.295342-54.295342-81.189296-19.789891-99.456888 19.789891-98.949455 54.295342-80.681863 80.681863-54.295342 98.949455-19.789891zM1018.925669 450.600595l0 127.873142-60.891972 0q-10.148662 75.100099-43.131814 141.066402t-84.233895 117.217047-116.709613 84.741328-140.558969 43.639247l0 58.86224-126.858276 0 0-58.86224q-75.100099-11.163528-140.051536-45.161546t-115.187314-84.741328-83.219029-116.20218-42.116947-140.558969l-64.951437 0 0-127.873142 65.966303 0q11.163528-73.070367 44.654113-136.499504t83.726462-113.157582 114.172448-82.204163 137.006938-43.639247l0-70.025768 126.858276 0 0 69.010902q74.085233 10.148662 138.529237 43.131814t115.187314 82.711596 84.233895 113.665015 44.654113 137.006938l62.921705 0zM511.492567 833.205154q65.966303 0 124.32111-24.864222t101.48662-68.503469 68.503469-101.994054 25.371655-124.32111-25.371655-124.32111-68.503469-101.48662-101.48662-68.503469-124.32111-25.371655-124.32111 25.371655-101.994054 68.503469-68.503469 101.48662-24.864222 124.32111 24.864222 124.32111 68.503469 101.994054 101.994054 68.503469 124.32111 24.864222z" p-id="2937"></path></svg>