<?xml version="1.0" standalone="no"?><!DOCTYPE svg PUBLIC "-//W3C//DTD SVG 1.1//EN" "http://www.w3.org/Graphics/SVG/1.1/DTD/svg11.dtd"><svg t="1523598754956" class="icon" style="" viewBox="0 0 1024 1024" version="1.1" xmlns="http://www.w3.org/2000/svg" p-id="564" xmlns:xlink="http://www.w3.org/1999/xlink" width="200" height="200"><defs><style type="text/css"></style></defs><path d="M918.150616 617.561402l-52.412725 36.861697 34.941817 49.5969H447.972002v63.996h575.964002zM529.630898 978.24286l57.404412-28.414224L560.348978 896.008H1023.936004v-63.996001H457.12343z" fill="" p-id="565"></path><path d="M702.740079 640.023999l45.245172-45.245173a466.274858 466.274858 0 0 0-120.440473-59.772264c84.666708-50.172864 142.007125-141.495157 142.007125-246.960565a287.982001 287.982001 0 1 0-575.964002 0c0 105.465408 57.404412 196.787701 142.07112 246.960565A479.970002 479.970002 0 0 0 3.1998 960.004h63.996c16.446972-214.450597 195.763765-383.976001 414.374102-383.976002 81.27492 0 157.110181 23.486532 221.170177 63.996001zM257.583901 288.045997c0-123.51228 100.47372-223.986001 223.922005-223.986001 123.51228 0 224.049997 100.47372 224.049997 223.986001S605.082182 512.031998 481.505906 512.031998a224.241985 224.241985 0 0 1-223.922005-223.986001z" fill="" p-id="566"></path></svg>