<?xml version="1.0" standalone="no"?><!DOCTYPE svg PUBLIC "-//W3C//DTD SVG 1.1//EN" "http://www.w3.org/Graphics/SVG/1.1/DTD/svg11.dtd"><svg t="1522205223761" class="icon" style="" viewBox="0 0 1024 1024" version="1.1" xmlns="http://www.w3.org/2000/svg" p-id="967" xmlns:xlink="http://www.w3.org/1999/xlink" width="200" height="200"><defs><style type="text/css"></style></defs><path d="M1017.6 211.2C992 89.6 780.8 0 512 0S32 89.6 6.4 211.2C0 217.6 0 230.4 0 236.8L0 512l0 256c0 0 0 6.4 0 6.4 0 6.4 0 6.4 0 12.8C0 921.6 217.6 1024 512 1024s512-102.4 512-236.8c0-6.4 0-6.4 0-12.8 0 0 0-6.4 0-6.4L1024 512 1024 236.8C1024 230.4 1024 217.6 1017.6 211.2zM960 665.6l0 44.8 0 25.6 0 51.2c0 6.4 0 6.4 0 12.8-19.2 76.8-198.4 160-448 160s-428.8-83.2-448-160c0-6.4 0-6.4 0-12.8l0-51.2 0-25.6 0-44.8L64 627.2C70.4 640 76.8 640 89.6 646.4c12.8 6.4 19.2 12.8 32 19.2 12.8 6.4 25.6 12.8 32 19.2 51.2 25.6 115.2 38.4 179.2 51.2C390.4 742.4 448 748.8 512 748.8s121.6-6.4 179.2-12.8c70.4-12.8 128-25.6 179.2-51.2 12.8-6.4 25.6-12.8 32-19.2 12.8-6.4 19.2-12.8 32-19.2C947.2 640 953.6 640 960 627.2L960 665.6zM960 396.8l0 44.8L960 512c0 32-32 70.4-89.6 102.4-12.8 6.4-25.6 12.8-38.4 19.2-12.8 6.4-32 12.8-51.2 19.2-70.4 19.2-166.4 38.4-268.8 38.4s-198.4-12.8-268.8-38.4C224 646.4 211.2 640 192 633.6 179.2 627.2 166.4 620.8 153.6 614.4 96 582.4 64 544 64 512L64 441.6 64 396.8 64 358.4c6.4 6.4 12.8 12.8 25.6 19.2C96 384 108.8 390.4 121.6 396.8 128 396.8 140.8 403.2 153.6 409.6c89.6 38.4 217.6 64 358.4 64s268.8-25.6 358.4-64c12.8-6.4 25.6-12.8 32-19.2 12.8-6.4 19.2-12.8 32-19.2 6.4-6.4 19.2-12.8 25.6-19.2L960 396.8zM953.6 256c-6.4 32-38.4 57.6-89.6 83.2-12.8 6.4-25.6 12.8-38.4 19.2-12.8 6.4-32 12.8-51.2 19.2C710.4 396.8 614.4 409.6 512 409.6S313.6 396.8 243.2 377.6C224 371.2 211.2 364.8 192 358.4 179.2 352 166.4 345.6 153.6 339.2 108.8 313.6 76.8 288 70.4 256 64 249.6 64 243.2 64 236.8 64 224 70.4 204.8 83.2 192 134.4 128 294.4 64 512 64s377.6 64 428.8 128C953.6 204.8 960 224 960 236.8 960 243.2 960 249.6 953.6 256z" p-id="968"></path></svg>