<?xml version="1.0" standalone="no"?><!DOCTYPE svg PUBLIC "-//W3C//DTD SVG 1.1//EN" "http://www.w3.org/Graphics/SVG/1.1/DTD/svg11.dtd"><svg class="icon" width="200px" height="200.00px" viewBox="0 0 1024 1024" version="1.1" xmlns="http://www.w3.org/2000/svg"><path fill="#333333" d="M512 51.512211c-254.320243 0-460.487789 206.167546-460.487789 460.487789s206.167546 460.487789 460.487789 460.487789 460.487789-206.167546 460.487789-460.487789S766.320243 51.512211 512 51.512211zM512 908.022569c-218.717374 0-396.022569-177.305195-396.022569-396.022569S293.282626 115.977431 512 115.977431 908.022569 293.282626 908.022569 512 730.717374 908.022569 512 908.022569zM681.07065 655.618978c0 14.056134-11.394515 25.451672-25.451672 25.451672L368.381022 681.07065c-14.056134 0-25.451672-11.394515-25.451672-25.451672L342.92935 368.381022c0-14.056134 11.394515-25.451672 25.451672-25.451672l287.237957 0c14.056134 0 25.451672 11.394515 25.451672 25.451672L681.07065 655.618978z" /></svg>