<?xml version="1.0" standalone="no"?><!DOCTYPE svg PUBLIC "-//W3C//DTD SVG 1.1//EN" "http://www.w3.org/Graphics/SVG/1.1/DTD/svg11.dtd"><svg t="1533693308848" class="icon" style="" viewBox="0 0 1024 1024" version="1.1" xmlns="http://www.w3.org/2000/svg" p-id="2180" xmlns:xlink="http://www.w3.org/1999/xlink" width="200" height="200"><defs><style type="text/css"></style></defs><path d="M504.945778 944.090074a419.953778 419.953778 0 0 1-298.856297-123.828148 419.915852 419.915852 0 0 1-123.866074-298.894222 419.84 419.84 0 0 1 120.794074-295.746371v84.34726a30.189037 30.189037 0 1 0 60.378075 0V128.83437H82.223407a30.189037 30.189037 0 1 0 0 60.378074h72.097186a479.649185 479.649185 0 0 0-132.47526 332.15526c0 129.024 50.213926 250.311111 141.50163 341.598815a479.876741 479.876741 0 0 0 341.598815 141.501629 30.226963 30.226963 0 0 0 0-60.378074z m422.72237-90.605037H855.608889a479.535407 479.535407 0 0 0 132.513185-332.117333c0-129.024-50.251852-250.386963-141.539555-341.636741a479.876741 479.876741 0 0 0-341.598815-141.50163 30.189037 30.189037 0 0 0 0 60.378074c112.905481 0 219.060148 43.994074 298.894222 123.828149a419.764148 419.764148 0 0 1 123.828148 298.932148 419.764148 419.764148 0 0 1-120.756148 295.708444V732.728889a30.226963 30.226963 0 0 0-60.416 0v181.134222h181.172148a30.226963 30.226963 0 0 0 0-60.378074z" p-id="2181"></path></svg>