<?xml version="1.0" standalone="no"?><!DOCTYPE svg PUBLIC "-//W3C//DTD SVG 1.1//EN" "http://www.w3.org/Graphics/SVG/1.1/DTD/svg11.dtd"><svg t="1525326512036" class="icon" style="" viewBox="0 0 1024 1024" version="1.1" xmlns="http://www.w3.org/2000/svg" p-id="3692" xmlns:xlink="http://www.w3.org/1999/xlink" width="32" height="32"><defs><style type="text/css"></style></defs><path d="M522.6 957.4c-119.6 0-232.2-46.6-316.8-131.2-84.6-84.6-131.2-197.2-131.2-316.8s46.6-232.2 131.2-316.8c84.6-84.6 197.2-131.2 316.8-131.2 119.6 0 232.2 46.6 316.8 131.2 84.6 84.6 131.2 197.2 131.2 316.8S924 741.6 839.4 826.2c-84.6 84.6-197.2 131.2-316.8 131.2z m0-856c-225 0-408 183-408 408s183 408 408 408 408-183 408-408-183-408-408-408z" fill="#262435" p-id="3693"></path><path d="M732.8 532.6H522.6c-11 0-20-9-20-20s9-20 20-20h210.2c11 0 20 9 20 20s-9 20-20 20z" fill="#262435" p-id="3694"></path><path d="M522.2 533c-11 0-20-9-20-20V183.8c0-11 9-20 20-20s20 9 20 20v329.2c0 11-9 20-20 20z" fill="#262435" p-id="3695"></path></svg>