<?xml version="1.0" standalone="no"?><!DOCTYPE svg PUBLIC "-//W3C//DTD SVG 1.1//EN" "http://www.w3.org/Graphics/SVG/1.1/DTD/svg11.dtd"><svg t="1522031754958" class="icon" style="" viewBox="0 0 1467 1024" version="1.1" xmlns="http://www.w3.org/2000/svg" p-id="9349" xmlns:xlink="http://www.w3.org/1999/xlink" width="45.84375" height="32"><defs><style type="text/css"></style></defs><path d="M109.878554 841.159672v27.426049a152.671674 152.671674 0 0 0 155.414278 146.272263 152.671674 152.671674 0 0 0 155.414279-146.272263v-27.426049a33.825461 33.825461 0 0 0-9.142016-27.426049 166.384699 166.384699 0 0 0-100.562181-91.420164 82.278148 82.278148 0 0 0-45.710082-9.142017 68.565123 68.565123 0 0 0-45.710082 9.142017 166.384699 166.384699 0 0 0-100.56218 91.420164 33.825461 33.825461 0 0 0-9.142016 27.426049z m91.420164 27.426049a33.825461 33.825461 0 0 1 9.142016-27.426049l27.426049-27.426049a43.881679 43.881679 0 0 1 36.568066-9.142017 54.852098 54.852098 0 0 1 36.568065 9.142017l27.42605 27.426049c0 9.142016 9.142016 18.284033 9.142016 27.426049a62.165712 62.165712 0 0 1-63.994115 63.994115 68.565123 68.565123 0 0 1-82.278147-63.994115z" fill="#FFFFFF" p-id="9350"></path><path d="M0.174357 694.887409v146.272263a24.683444 24.683444 0 0 0 27.426049 27.426049h36.568066v-27.426049a33.825461 33.825461 0 0 1 9.142016-27.426049 209.352176 209.352176 0 0 1 63.994115-91.420164 200.210159 200.210159 0 0 1 45.710082-27.42605 54.852098 54.852098 0 0 1 36.568065-9.142016h73.136132a207.523772 207.523772 0 0 1 36.568065 9.142016 200.210159 200.210159 0 0 1 45.710082 27.42605 328.198389 328.198389 0 0 1 63.994115 91.420164 25.597646 25.597646 0 0 1 18.284033 27.426049v27.426049h438.816787v-27.426049a33.825461 33.825461 0 0 1 9.142017-27.426049 209.352176 209.352176 0 0 1 63.994115-91.420164 47.538485 47.538485 0 0 1 36.568065-18.284033H420.707111l-9.142016-9.142017V219.502556a25.597646 25.597646 0 0 0-27.426049-18.284032H146.446619a18.284033 18.284033 0 0 0-18.284033 9.142016A310.828558 310.828558 0 0 0 9.316373 466.336999v219.408394c0-9.142016-9.142016 0-9.142016 9.142016z m73.136131-274.260492a240.435031 240.435031 0 0 1 82.278148-164.556295h201.124361v164.556295H73.310488zM941.802046 841.159672v27.426049a155.414279 155.414279 0 0 0 310.828558 0v-27.426049a33.825461 33.825461 0 0 0-9.142016-27.426049 166.384699 166.384699 0 0 0-100.562181-91.420164 82.278148 82.278148 0 0 0-45.710082-9.142017 68.565123 68.565123 0 0 0-45.710082 9.142017 166.384699 166.384699 0 0 0-100.56218 91.420164 33.825461 33.825461 0 0 0-9.142017 27.426049z m91.420164 27.426049a33.825461 33.825461 0 0 1 9.142017-27.426049l27.426049-27.426049a43.881679 43.881679 0 0 1 36.568066-9.142017 54.852098 54.852098 0 0 1 36.568065 9.142017l27.426049 27.426049c0 9.142016 9.142016 18.284033 9.142017 27.426049a62.165712 62.165712 0 0 1-63.994115 63.994115 68.565123 68.565123 0 0 1-82.278148-63.994115zM1188.636489 704.029426a28.340251 28.340251 0 0 1-18.284033-9.142017h210.266378v146.272263a24.683444 24.683444 0 0 1-27.426049 27.426049h-63.994115v-27.426049a33.825461 33.825461 0 0 0-9.142017-27.426049 209.352176 209.352176 0 0 0-63.994115-91.420164 31.082856 31.082856 0 0 0-27.426049-18.284033z" fill="#FFFFFF" p-id="9351"></path><path d="M466.417193 612.609262V45.804245a42.967477 42.967477 0 0 1 45.710082-45.710082h895.917608a42.967477 42.967477 0 0 1 45.710082 45.710082v566.805017a42.967477 42.967477 0 0 1-45.710082 45.710082H512.127275a42.967477 42.967477 0 0 1-45.710082-45.710082z" fill="#FFFFFF" p-id="9352"></path></svg>