<?xml version="1.0" standalone="no"?><!DOCTYPE svg PUBLIC "-//W3C//DTD SVG 1.1//EN" "http://www.w3.org/Graphics/SVG/1.1/DTD/svg11.dtd"><svg t="1528794091041" class="icon" style="" viewBox="0 0 1024 1024" version="1.1" xmlns="http://www.w3.org/2000/svg" p-id="14284" xmlns:xlink="http://www.w3.org/1999/xlink" width="32" height="32"><defs><style type="text/css"></style></defs><path d="M395.52 128l595.392 0C1009.216 128 1024 143.616 1024 162.944l0 453.824c0 19.264-14.784 34.88-33.088 34.88L395.52 651.648c-18.24 0-33.088-15.616-33.088-34.88L362.432 162.944C362.432 143.616 377.28 128 395.52 128z" p-id="14285"></path><path d="M261.184 267.648C261.184 267.648 320 250.176 320 320l0 256c0 0 5.248 74.56-56.768 74.56L161.92 650.56c0 0-97.152 7.616-97.152 101.44 0 0-2.048 39.296-35.136 39.296 0 0-29.632 0-29.632-32.704L0 540.352c0 0 6.912-34.88 27.584-65.472l70.272-137.472c0 0 16.512-69.824 66.176-69.824C182.592 269.824 261.184 267.648 261.184 267.648z" p-id="14286"></path><path d="M196.032 687.296c55.36 0 100.288 44.48 100.288 102.912C296.32 848.64 251.392 896 196.032 896c-55.36 0-97.536-47.36-97.536-105.792C98.56 731.776 140.672 687.296 196.032 687.296z" p-id="14287"></path><path d="M329.408 686.528l396.928 0c0 0 30.976 42.56 30.976 70.912l-394.88 0C362.432 757.44 329.408 732.352 329.408 686.528z" p-id="14288"></path><path d="M890.688 686.528c54.208 0 98.176 46.4 98.176 103.616 0 57.216-43.968 103.616-98.176 103.616s-98.176-46.4-98.176-103.616C792.448 732.928 836.416 686.528 890.688 686.528z" p-id="14289"></path></svg>